<svg
    xmlns="http://www.w3.org/2000/svg"
    viewBox="0 0 511 511"
    id="vector">
    <path
        id="path"
        d="M 220.318 249.429 C 244.103 249.429 267.888 249.429 291.671 249.429 L 292.061 254.306 L 257.191 307.169 L 219.733 253.784 L 220.317 249.432 L 220.318 249.429 L 220.318 249.429 Z"
        fill="#b3b3b3"/>
    <path
        id="path_1"
        d="M 220.778 236.169 L 220.16 265.988 L 169.57 293.652 L 169.57 395.057 L 254.734 395.057 L 339.887 395.057 L 339.887 293.651 L 292.871 264.428 L 290.289 234.614 L 220.779 236.168 L 220.778 236.168 Z"
        fill="#f0ba7d"/>
    <path
        id="path_2"
        d="M 197.401 149.212 C 197.401 149.212 194.5 142.838 186.712 145.997 C 178.922 149.152 187.062 180.648 190.039 185.042 C 193.013 189.434 197.802 186.645 199.546 186.471 C 202.026 205.247 202.247 218.188 209.763 226.105 C 216.882 233.601 233.18 248.878 241.766 254.206 C 247.581 255.434 251.919 256.155 256 256.371 C 260.079 256.155 264.421 255.432 270.234 254.206 C 278.819 248.881 295.12 233.601 302.237 226.105 C 309.751 218.188 309.974 205.25 312.454 186.471 C 314.198 186.646 318.987 189.434 321.961 185.042 C 324.937 180.648 333.078 149.151 325.288 145.997 C 317.498 142.837 314.599 149.212 314.599 149.212 C 314.599 149.212 322.298 124.479 308.613 100.134 C 299.235 83.448 277.846 74.794 256.001 74.159 C 234.156 74.794 212.767 83.448 203.389 100.134 C 189.704 124.48 197.403 149.212 197.403 149.212 L 197.401 149.212 L 197.401 149.212 Z"
        fill="#fed298"/>
    <path
        id="path_3"
        d="M 195.351 274.76 L 207.466 269.988 L 217.229 261.215 L 251.701 287.36 L 260.286 287.36 L 294.769 261.184 L 316.643 274.763 L 354.654 339.373 L 324.551 502.696 C 302.73 508.748 279.742 511.996 255.993 511.996 C 236.624 511.996 217.763 509.831 199.625 505.756 L 145.67 344.535 L 195.348 274.761 L 195.351 274.76 Z"
        fill="#15bdb2"/>
    <path
        id="path_4"
        d="M 305.588 266.591 L 291.671 249.429 L 260.29 287.361 L 287.226 317.291 L 305.588 266.591 Z"
        fill="#21d0c3"/>
    <path
        id="path_5"
        d="M 206.384 266.289 L 220.319 249.429 L 251.702 287.361 L 223.696 316.983 L 206.384 266.289 Z"
        fill="#21d0c3"/>
    <path
        id="path_6"
        d="M 206.386 266.289 L 114.142 296.286 C 110.391 297.503 108.035 300.693 107.271 304.565 L 80.146 442.023 C 98.413 459.298 119.226 473.901 141.959 485.233 L 155.444 441.224 C 155.601 440.719 156.081 440.404 156.606 440.467 C 157.129 440.529 157.527 440.948 157.556 441.477 L 159.503 493.165 C 189.284 505.3 221.858 511.996 256.002 511.996 L 256.002 494.834 L 206.388 266.29 L 206.386 266.289 Z"
        fill="#ffffff"/>
    <path
        id="path_7"
        d="M 206.386 266.289 L 195.821 269.535 L 167.831 317.294 L 203.166 318.401 L 181.473 330.752 L 256.003 494.836 L 206.389 266.291 L 206.386 266.289 Z"
        fill="#eef3f7"/>
    <path
        id="path_8"
        d="M 305.588 266.591 L 397.86 296.286 C 401.617 297.495 403.965 300.693 404.729 304.565 L 431.855 442.025 C 413.586 459.3 392.772 473.904 370.038 485.237 L 356.551 441.226 C 356.396 440.721 355.911 440.406 355.389 440.469 C 354.866 440.531 354.472 440.952 354.441 441.479 L 352.499 493.167 C 322.718 505.302 290.144 511.998 256.002 511.998 L 256 511.998 L 256 494.836 L 305.587 266.594 L 305.588 266.591 Z"
        fill="#eef3f7"/>
    <path
        id="path_9"
        d="M 305.588 266.591 L 311.453 268.375 L 344.146 317.595 L 308.811 318.704 L 330.506 331.056 L 256 494.836 L 305.587 266.594 L 305.587 266.592 L 305.588 266.592 Z"
        fill="#ffffff"/>
    <path
        id="path_10"
        d="M 266.455 493.762 C 263.344 493.762 260.822 496.278 260.822 499.378 C 260.822 502.483 263.346 504.998 266.455 504.998 C 269.564 504.998 272.088 502.482 272.088 499.378 C 272.088 496.276 269.564 493.762 266.455 493.762 Z"
        fill="#d9dada"/>
    <path
        id="path_11"
        d="M 307.877 156.576 L 313.305 156.386 L 315.052 150.192 L 320.165 145.09 C 323.542 119.662 324.537 80.087 299.298 81.229 C 299.298 81.229 297.022 52.373 251.497 58.029 C 205.969 63.687 185.399 93.077 187.85 117.597 C 190.299 142.117 189.312 145.087 189.312 145.087 L 194.425 150.191 L 195.196 157.237 L 199.661 156.955 C 199.661 156.955 201.061 147.524 202.462 143.376 C 203.864 139.229 203.425 130.833 203.425 130.833 C 203.425 130.833 257.199 134.259 271.731 115.774 C 280.706 104.359 301.318 84.58 302.356 111.972 C 302.664 120.095 299.644 132.27 305.423 141.131 C 311.204 149.993 307.875 156.574 307.875 156.574 L 307.877 156.574 L 307.877 156.576 Z"
        fill="#666666"/>
    <path
        id="path_12"
        d="M 256 494.834 L 270.536 427.93 L 260.658 296.05 L 266.04 293.753 L 260.287 287.362 L 251.702 287.362 L 245.802 293.604 L 251.34 296.051 L 241.709 428.998 L 256.001 494.835 L 256 494.834 L 256 494.834 Z"
        fill="#0f7986"/>
    <path
        id="path_13"
        d="M 265.954 493.762 C 263.121 493.762 260.821 496.052 260.821 498.877 C 260.821 501.705 263.12 503.997 265.954 503.997 C 268.785 503.997 271.087 501.706 271.087 498.877 C 271.087 496.053 268.785 493.762 265.954 493.762 Z"
        fill="#ffffff"/>
    <path
        id="path_14"
        d="M 346.395 409.066 C 336.405 407.341 329.705 397.843 331.428 387.856 C 333.153 377.868 342.651 371.163 352.638 372.887 C 362.628 374.612 369.328 384.112 367.605 394.102 C 365.88 404.089 356.382 410.792 346.393 409.067 L 346.395 409.066 L 346.395 409.066 Z"
        fill="#fefefe"/>
    <path
        id="path_15"
        d="M 346.576 408.012 C 337.168 406.387 330.858 397.447 332.483 388.036 C 334.108 378.627 343.051 372.316 352.461 373.939 C 361.869 375.564 368.179 384.509 366.554 393.917 C 364.929 403.328 355.986 409.635 346.576 408.01 L 346.576 408.012 Z"
        fill="#0f7986"/>
    <path
        id="path_16"
        d="M 347.89 400.405 C 342.686 399.508 339.194 394.555 340.091 389.35 C 340.988 384.144 345.941 380.654 351.144 381.551 C 356.35 382.45 359.842 387.396 358.943 392.604 C 358.046 397.808 353.095 401.3 347.89 400.403 L 347.89 400.405 Z"
        fill="#ebecec"/>
    <path
        id="path_17"
        d="M 349.015 382.577 L 353.218 383.303 L 355.478 370.213 L 351.275 369.487 L 349.015 382.577 Z"
        fill="#fefefe"/>
    <path
        id="path_18"
        d="M 208.24 412.697 L 216.116 411.134 C 219.463 410.468 222.234 408.499 224.003 405.855 C 225.767 403.211 226.534 399.898 225.868 396.55 L 216.605 349.883 C 213.108 332.273 199.332 323.293 183.59 321.302 C 177.558 320.539 171.234 320.817 165.107 322.03 C 158.975 323.243 153.031 325.399 147.75 328.406 C 133.996 336.24 124.727 349.784 128.228 367.422 L 137.491 414.091 C 138.157 417.438 140.13 420.207 142.772 421.976 L 142.779 421.974 C 145.423 423.743 148.732 424.505 152.079 423.841 L 159.951 422.278 L 159.307 419.032 L 151.433 420.595 C 148.979 421.082 146.548 420.52 144.611 419.228 L 144.613 419.226 C 142.675 417.928 141.227 415.897 140.739 413.445 L 131.476 366.776 C 128.299 350.771 136.792 338.435 149.377 331.272 C 154.351 328.437 159.96 326.404 165.75 325.255 C 171.54 324.108 177.502 323.849 183.184 324.567 C 197.593 326.388 210.193 334.548 213.362 350.522 L 222.627 397.191 C 223.112 399.643 222.55 402.072 221.256 404.013 C 219.958 405.949 217.927 407.397 215.472 407.882 L 207.596 409.445 L 208.24 412.691 L 208.24 412.696 L 208.24 412.696 Z"
        fill="#21d0c3"/>
    <path
        id="path_19"
        d="M 219.104 356.799 L 217.689 349.671 C 214.086 331.515 199.912 322.261 183.728 320.212 C 177.579 319.436 171.139 319.714 164.897 320.953 C 158.655 322.188 152.596 324.388 147.215 327.45 C 133.069 335.506 123.541 349.452 127.151 367.64 L 128.568 374.768 L 133.974 373.692 L 132.559 366.564 C 129.492 351.106 137.727 339.171 149.92 332.228 C 154.794 329.454 160.29 327.463 165.967 326.337 C 171.642 325.21 177.487 324.957 183.054 325.66 C 197.015 327.424 209.221 335.31 212.286 350.742 L 213.701 357.87 L 219.109 356.796 L 219.104 356.799 Z"
        fill="#4d4d4d"/>
    <path
        id="path_20"
        d="M 153.704 424.235 L 157.918 423.398 C 158.976 424.585 160.613 425.194 162.281 424.864 C 164.788 424.366 166.417 421.932 165.919 419.423 C 165.423 416.918 162.987 415.289 160.48 415.787 C 158.808 416.117 157.53 417.308 157.008 418.808 L 152.797 419.643 L 153.707 424.233 L 153.704 424.235 Z"
        fill="#076673"/>
    <path
        id="path_21"
        d="M 211.588 412.746 L 207.379 413.583 C 206.856 415.082 205.578 416.271 203.909 416.604 C 201.402 417.1 198.968 415.473 198.47 412.964 C 197.974 410.459 199.601 408.023 202.106 407.527 C 203.775 407.197 205.414 407.809 206.467 408.993 L 210.678 408.156 L 211.588 412.746 Z"
        fill="#076673"/>
    <path
        id="path_22"
        d="M 167.458 320.532 L 165.851 312.436 L 162.656 313.071 L 159.465 313.704 L 161.09 321.88 C 162.307 321.525 163.539 321.223 164.783 320.976 C 165.67 320.799 166.56 320.654 167.458 320.532 Z"
        fill="#666666"/>
    <path
        id="path_23"
        d="M 160.566 419.73 C 161.324 419.58 161.817 418.84 161.666 418.085 C 161.516 417.326 160.782 416.832 160.021 416.982 C 159.262 417.132 158.77 417.87 158.921 418.627 C 159.072 419.384 159.807 419.88 160.566 419.727 L 160.566 419.73 Z"
        fill="#0f7986"/>
    <path
        id="path_24"
        d="M 202.219 411.446 C 202.976 411.296 203.467 410.558 203.317 409.803 C 203.167 409.042 202.433 408.55 201.672 408.7 C 200.913 408.85 200.421 409.588 200.572 410.347 C 200.72 411.105 201.458 411.597 202.219 411.446 Z"
        fill="#0f7986"/>
    <path
        id="path_25"
        d="M 347.379 400.317 C 342.456 399.468 339.155 394.787 340.003 389.861 C 340.852 384.94 345.53 381.637 350.454 382.488 C 355.377 383.337 358.68 388.018 357.83 392.939 C 356.979 397.862 352.298 401.165 347.377 400.317 L 347.379 400.317 Z"
        fill="#fefefe"/>
    <path
        id="path_26"
        d="M 206.431 268.717 C 206.29 268.719 156.571 269.131 164.969 312.629 L 160.345 313.513 C 150.878 264.475 206.219 264.023 206.376 264.021 L 206.431 268.717 Z"
        fill="#4d4d4d"/>
    <path
        id="path_27"
        d="M 305.643 264.243 C 313.755 264.462 329.435 266.673 341.505 281.354 C 353.316 295.721 361.596 322.106 355.405 370.482 L 350.744 369.893 C 356.737 323.071 348.993 297.861 337.879 284.339 C 327.02 271.128 312.861 269.137 305.536 268.94 L 305.646 264.243 L 305.643 264.243 Z"
        fill="#4d4d4d"/>
</svg>
