<svg
    xmlns="http://www.w3.org/2000/svg"
    viewBox="0 0 464 464"
    id="vector">
    <path
        id="path"
        d="M 386.001 416.74 L 386.001 456 C 386.001 460.42 382.421 464 378.001 464 L 86.001 464 C 81.581 464 78.001 460.42 78.001 456 L 78.001 416.74 C 78.001 386.55 95.951 360.54 121.761 348.81 C 111.23 340.431 95.179 329.169 83.501 304.94 C 67.236 271.242 70.02 231.488 90.741 200.37 C 102.001 183.47 108.001 163.63 108.001 143.33 L 108.001 100 C 108.001 44.77 152.771 0 208.001 0 L 256.001 0 C 311.231 0 356.001 44.77 356.001 100 C 356.001 145.887 354.88 154.873 360.411 173.12 C 368.216 198.921 378.525 202.113 386.471 228.37 C 398.962 269.644 385.145 314.657 351.101 341.76 L 342.241 348.81 C 368.051 360.54 386.001 386.55 386.001 416.74 Z"
        fill="#ffdfba"/>
    <path
        id="path_1"
        d="M 386.001 416.74 L 386.001 456 C 386.001 460.418 382.419 464 378.001 464 L 86.001 464 C 81.583 464 78.001 460.418 78.001 456 L 78.001 416.74 C 78.001 375.578 111.37 342.17 152.571 342.17 C 158.701 342.17 164.521 340.84 169.751 338.46 L 170.001 339 L 227.104 383.208 C 229.987 385.44 234.015 385.44 236.899 383.208 L 294.001 339 L 294.251 338.46 C 299.481 340.84 305.301 342.17 311.431 342.17 C 352.472 342.17 386.001 375.419 386.001 416.74 Z"
        fill="#ffaa64"/>
    <path
        id="path_2"
        d="M 323.429 146.258 C 327.676 146.5 331.001 149.99 331.001 154.244 L 331.001 202.13 C 331.001 243.4 305.751 278.77 269.851 293.63 C 204.934 320.577 133.001 272.706 133.001 202.13 L 133.001 154.94 C 133.001 150.251 137.017 146.546 141.687 146.969 C 189.674 151.32 236.929 139.202 276.61 112.47 C 281.123 109.43 287.337 111.682 288.762 116.934 C 293.698 135.128 307.161 145.331 323.429 146.258 Z"
        fill="#ffebd2"/>
    <path
        id="path_3"
        d="M 351.101 341.76 L 342.241 348.81 C 332.851 344.55 322.421 342.17 311.431 342.17 C 288.602 342.17 270.001 323.735 270.001 300.83 L 270.001 294 L 269.851 293.63 C 305.751 278.77 331.001 243.4 331.001 202.13 L 331.001 154.244 C 331.001 149.99 327.676 146.5 323.429 146.258 C 307.261 145.337 293.73 135.245 288.762 116.935 C 287.337 111.683 281.123 109.431 276.61 112.471 C 236.955 139.185 189.703 151.323 141.687 146.97 C 137.017 146.547 133.001 150.252 133.001 154.941 L 133.001 202.131 C 133.001 243.401 158.251 278.771 194.151 293.631 L 194.001 294.001 L 194.001 300.831 C 194.001 323.732 175.405 342.171 152.571 342.171 C 141.581 342.171 131.151 344.551 121.761 348.811 L 112.901 341.761 C 69.89 307.489 60.313 246.066 90.741 200.371 C 102.001 183.471 108.001 163.631 108.001 143.331 L 108.001 100 C 108.001 44.772 152.773 0 208.001 0 L 256.001 0 C 311.229 0 356.001 44.772 356.001 100 L 356.001 143.33 C 356.001 163.606 362.001 183.47 373.261 200.37 C 403.8 246.232 393.949 307.648 351.101 341.76 Z"
        fill="#42434d"/>
    <path
        id="path_4"
        d="M 271.131 310.42 C 246.494 320.733 219.419 321.533 192.871 310.42 C 194.227 304.794 194.001 301.15 194.001 294 L 194.151 293.63 C 218.233 303.626 245.722 303.646 269.851 293.63 L 270.001 294 C 270.001 301.153 269.775 304.796 271.131 310.42 Z"
        fill="#ffd6a6"/>
    <path
        id="path_5"
        d="M 301.176 10.762 C 311.388 15.942 306.95 31.529 295.55 30.45 C 292.407 30.152 289.221 30 286 30 L 238 30 C 182.772 30 138 74.772 138 130 L 138 142.168 C 138 149.352 133 149.12 133 154.94 C 133 207.762 133.214 204.418 132.439 206.697 C 124.594 229.775 115.173 233.115 107.53 258.37 C 103.367 272.126 102.137 286.292 103.579 300.039 C 104.756 311.259 89.133 316.626 83.5 304.94 C 67.351 271.483 69.88 231.697 90.74 200.37 C 102 183.47 108 163.63 108 143.33 L 108 100 C 108 44.772 152.772 0 208 0 L 256 0 C 272.257 0 287.607 3.879 301.176 10.762 Z"
        fill="#4d4e59"/>
    <path
        id="path_6"
        d="M 213.022 268.449 C 227.961 278.449 216.575 301.579 199.612 295.626 C 162.326 282.542 133.001 247.743 133.001 202.129 L 133.001 154.939 C 133.001 150.249 137.021 146.549 141.691 146.969 C 145.523 147.317 149.731 147.591 154.272 147.73 C 162.491 147.98 169.001 154.767 169.001 162.99 L 169.001 186.13 C 169.001 220.956 186.757 250.868 213.022 268.449 Z"
        fill="#fff3e4"/>
    <path
        id="path_7"
        d="M 186.494 351.769 C 191.24 355.443 188.732 363.147 182.73 363.17 C 140.397 363.328 108.001 397.319 108.001 437.74 L 108.001 464 L 86.001 464 C 81.583 464 78.001 460.418 78.001 456 L 78.001 416.74 C 78.001 375.577 111.371 342.17 152.571 342.17 C 158.701 342.17 164.521 340.84 169.751 338.46 L 170.001 339 Z"
        fill="#ffbd7b"/>
    <path
        id="path_8"
        d="M 277.507 351.769 C 272.761 355.443 275.269 363.147 281.271 363.17 C 323.604 363.328 356 397.319 356 437.74 L 356 464 L 378 464 C 382.418 464 386 460.418 386 456 L 386 416.74 C 386 375.577 352.63 342.17 311.43 342.17 C 305.3 342.17 299.48 340.84 294.25 338.46 L 294 339 Z"
        fill="#faa157"/>
</svg>
