<svg
    xmlns="http://www.w3.org/2000/svg"
    viewBox="0 0 464 464"
    id="vector">
    <path
        id="path"
        d="M 386.028 416.796 L 386.028 456.056 C 386.028 460.476 382.448 464.056 378.028 464.056 L 86.028 464.056 C 81.608 464.056 78.028 460.476 78.028 456.056 L 78.028 416.796 C 78.028 375.606 111.418 342.236 152.618 342.226 C 167.178 342.216 179.998 334.726 187.378 323.366 C 194.792 311.972 194.028 302.064 194.028 294.056 L 194.178 293.686 C 158.278 278.826 133.028 243.456 133.028 202.186 L 133.028 199.056 C 118.773 199.056 108.028 187.791 108.028 174.516 L 108.028 132.956 C 107.708 118.486 108.368 67.456 145.228 31.926 C 188.088 -9.384 256.008 -6.004 305.208 16.096 C 306.808 16.816 306.758 19.106 305.138 19.776 L 292.308 25.056 C 290.388 25.846 290.798 28.676 292.858 28.896 L 299.088 29.566 C 328.918 32.756 356.628 48.956 373.808 75.916 C 374.268 76.646 374.138 77.756 373.548 78.386 C 362.948 89.596 357.028 104.476 357.028 119.946 L 357.028 174.516 C 357.028 188.066 346.038 199.056 332.488 199.056 L 331.028 199.056 L 331.028 202.186 C 331.028 243.456 305.778 278.826 269.878 293.686 L 270.028 294.056 C 270.028 301.833 269.201 311.876 276.678 323.366 C 284.058 334.726 296.878 342.216 311.438 342.226 C 352.638 342.236 386.028 375.606 386.028 416.796 Z"
        fill="#ffdfba"/>
    <path
        id="path_1"
        d="M 386.028 416.796 L 386.028 456.056 C 386.028 460.474 382.446 464.056 378.028 464.056 L 86.028 464.056 C 81.61 464.056 78.028 460.474 78.028 456.056 L 78.028 416.796 C 78.028 375.606 111.423 342.241 152.613 342.226 C 167.177 342.221 180 334.722 187.378 323.366 C 213.132 345.368 250.909 345.381 276.678 323.366 C 284.055 334.722 296.879 342.221 311.443 342.226 C 352.633 342.241 386.028 375.606 386.028 416.796 Z"
        fill="#ffaa64"/>
    <path
        id="path_2"
        d="M 373.804 75.921 C 374.268 76.65 374.138 77.754 373.545 78.382 C 362.948 89.6 357.028 104.475 357.028 119.946 L 357.028 174.516 C 357.028 186.904 347.695 199.056 331.028 199.056 L 331.028 137.286 C 331.028 110.776 309.538 89.286 283.028 89.286 L 181.028 89.286 C 154.518 89.286 133.028 110.776 133.028 137.286 L 133.028 199.056 C 118.773 199.056 108.028 187.791 108.028 174.516 L 108.028 132.956 C 107.708 118.486 108.368 67.456 145.228 31.926 C 188.085 -9.385 256.012 -6.003 305.204 16.099 C 306.804 16.818 306.762 19.109 305.139 19.777 L 292.308 25.059 C 290.39 25.849 290.794 28.676 292.856 28.897 L 299.088 29.566 C 328.923 32.753 356.626 48.953 373.804 75.921 Z"
        fill="#42434d"/>
    <path
        id="path_3"
        d="M 331.028 202.186 C 331.028 256.882 286.68 301.186 232.028 301.186 C 180.536 301.186 133.028 261.155 133.028 199.056 L 133.028 137.286 C 133.028 110.776 154.518 89.286 181.028 89.286 L 283.028 89.286 C 309.538 89.286 331.028 110.776 331.028 137.286 Z"
        fill="#ffebd2"/>
    <path
        id="path_4"
        d="M 313.028 447.056 L 289.028 447.056 C 284.61 447.056 281.028 443.474 281.028 439.056 C 281.028 434.638 284.61 431.056 289.028 431.056 L 313.028 431.056 C 317.446 431.056 321.028 434.638 321.028 439.056 C 321.028 443.474 317.447 447.056 313.028 447.056 Z"
        fill="#ffffff"/>
    <path
        id="path_5"
        d="M 209.612 266.114 C 225.889 276.297 213.054 301.27 195.236 294.118 C 158.602 279.414 133.028 243.714 133.028 202.186 L 133.028 137.286 C 133.028 127.202 136.138 117.844 141.45 110.118 C 147.964 100.645 163.028 104.83 163.028 117.286 L 163.028 182.186 C 163.028 218.696 182.22 248.976 209.612 266.114 Z"
        fill="#fff3e4"/>
    <path
        id="path_6"
        d="M 271.158 310.476 C 246.521 320.789 219.446 321.589 192.898 310.476 C 194.254 304.85 194.028 301.206 194.028 294.056 L 194.178 293.686 C 218.26 303.682 245.749 303.702 269.878 293.686 L 270.028 294.056 C 270.028 301.209 269.802 304.852 271.158 310.476 Z"
        fill="#ffd6a6"/>
    <path
        id="path_7"
        d="M 192.91 366.383 C 189.212 367.546 185.246 368.187 180.994 368.224 C 139.698 368.588 106.028 401.241 106.028 442.539 L 106.028 450.056 C 106.028 457.788 99.76 464.056 92.028 464.056 L 86.028 464.056 C 81.61 464.056 78.028 460.474 78.028 456.056 L 78.028 416.796 C 78.028 375.605 111.423 342.241 152.613 342.226 C 167.177 342.221 180 334.722 187.378 323.366 C 190.352 325.906 193.536 328.189 196.89 330.188 C 211.643 338.979 209.292 361.232 192.91 366.383 Z"
        fill="#ffbd7b"/>
    <path
        id="path_8"
        d="M 271.146 366.383 C 274.844 367.546 278.81 368.187 283.062 368.224 C 324.358 368.588 358.028 401.241 358.028 442.539 L 358.028 450.056 C 358.028 457.788 364.296 464.056 372.028 464.056 L 378.028 464.056 C 382.446 464.056 386.028 460.474 386.028 456.056 L 386.028 416.796 C 386.028 375.605 352.633 342.241 311.443 342.226 C 296.879 342.221 284.056 334.722 276.678 323.366 C 273.704 325.906 270.52 328.189 267.166 330.188 C 252.414 338.979 254.764 361.232 271.146 366.383 Z"
        fill="#faa157"/>
    <path
        id="path_9"
        d="M 305.138 19.776 C 293.38 24.615 291.704 25.682 287.63 25.05 C 221.956 14.87 164.336 42.043 144.768 105.836 L 144.768 105.846 C 137.448 114.266 133.028 125.266 133.028 137.286 L 133.028 174.809 C 133.028 190.997 108.028 192.124 108.028 174.516 L 108.028 132.956 C 107.708 118.486 108.368 67.456 145.228 31.926 C 188.088 -9.384 256.008 -6.004 305.208 16.096 C 306.808 16.816 306.758 19.106 305.138 19.776 Z"
        fill="#4d4e59"/>
</svg>
