<svg
    xmlns="http://www.w3.org/2000/svg"
    viewBox="0 0 512 512"
    id="vector">
    <path
        id="path"
        d="M 396 67.5 L 396 414.5 L 336 444.5 L 336 37.5 Z"
        fill="#06f5dd"/>
    <path
        id="path_1"
        d="M 366 37.5 L 366 444.5 L 116 414.5 L 116 67.5 Z"
        fill="#8cfff3"/>
    <path
        id="path_2"
        d="M 366 414.5 L 336 504.5 L 366 504.5 C 382.5 504.5 396 491 396 474.5 L 396 414.5 L 366 414.5 Z"
        fill="#bfbfbf"/>
    <path
        id="path_3"
        d="M 366 7.5 L 336 7.5 L 366 67.5 L 396 67.5 L 396 37.5 C 396 21 382.5 7.5 366 7.5 Z"
        fill="#bfbfbf"/>
    <path
        id="path_4"
        d="M 366 414.5 L 366 474.5 C 366 491 352.5 504.5 336 504.5 L 146 504.5 C 129.5 504.5 116 491 116 474.5 L 116 414.5 L 366 414.5 Z"
        fill="#dbdbdb"/>
    <path
        id="path_5"
        d="M 366 37.5 L 366 67.5 L 116 67.5 L 116 37.5 C 116 21 129.5 7.5 146 7.5 L 336 7.5 C 352.5 7.5 366 21 366 37.5 Z"
        fill="#dbdbdb"/>
    <path
        id="path_6"
        d="M 256 459.5 M 241 459.5 C 241 455.523 242.581 451.705 245.393 448.893 C 248.205 446.081 252.023 444.5 256 444.5 C 259.977 444.5 263.795 446.081 266.607 448.893 C 269.419 451.705 271 455.523 271 459.5 C 271 463.477 269.419 467.295 266.607 470.107 C 263.795 472.919 259.977 474.5 256 474.5 C 252.023 474.5 248.205 472.919 245.393 470.107 C 242.581 467.295 241 463.477 241 459.5"
        fill="#ffffff"/>
    <path
        id="path_7"
        d="M 366 0 L 146 0 C 125.322 0 108.5 16.822 108.5 37.5 L 108.5 474.5 C 108.5 495.178 125.322 512 146 512 L 366 512 C 386.678 512 403.5 495.178 403.5 474.5 L 403.5 37.5 C 403.5 16.822 386.678 0 366 0 Z M 146 15 L 366 15 C 378.407 15 388.5 25.093 388.5 37.5 L 388.5 60 L 123.5 60 L 123.5 37.5 C 123.5 25.093 133.593 15 146 15 Z M 366 497 L 146 497 C 133.593 497 123.5 486.907 123.5 474.5 L 123.5 422 L 146 422 C 150.142 422 153.5 418.642 153.5 414.5 C 153.5 410.358 150.142 407 146 407 L 123.5 407 L 123.5 75 L 388.5 75 L 388.5 407 L 176 407 C 171.858 407 168.5 410.358 168.5 414.5 C 168.5 418.642 171.858 422 176 422 L 388.5 422 L 388.5 474.5 C 388.5 486.907 378.407 497 366 497 Z"
        fill="#000000"/>
    <path
        id="path_8"
        d="M 256 45 L 286 45 C 290.142 45 293.5 41.642 293.5 37.5 C 293.5 33.358 290.142 30 286 30 L 256 30 C 251.858 30 248.5 33.358 248.5 37.5 C 248.5 41.642 251.858 45 256 45 Z"
        fill="#000000"/>
    <path
        id="path_9"
        d="M 256 437 C 243.593 437 233.5 447.093 233.5 459.5 C 233.5 471.907 243.593 482 256 482 C 268.407 482 278.5 471.907 278.5 459.5 C 278.5 447.093 268.407 437 256 437 Z M 256 467 C 251.864 467 248.5 463.636 248.5 459.5 C 248.5 455.364 251.864 452 256 452 C 260.136 452 263.5 455.364 263.5 459.5 C 263.5 463.636 260.136 467 256 467 Z"
        fill="#000000"/>
    <path
        id="path_10"
        d="M 226 37.5 M 218.5 37.5 C 218.5 35.512 219.291 33.603 220.697 32.197 C 222.103 30.791 224.012 30 226 30 C 227.988 30 229.897 30.791 231.303 32.197 C 232.709 33.603 233.5 35.512 233.5 37.5 C 233.5 39.488 232.709 41.397 231.303 42.803 C 229.897 44.209 227.988 45 226 45 C 224.012 45 222.103 44.209 220.697 42.803 C 219.291 41.397 218.5 39.488 218.5 37.5"
        fill="#000000"/>
    <path
        id="path_11"
        d="M 67.639 61.241 L 67.639 485.291 C 67.639 495.909 76.247 504.517 86.865 504.517 L 425.135 504.517 C 435.753 504.517 444.362 495.909 444.362 485.291 L 444.362 61.241 Z"
        fill="#dfebfa"/>
    <path
        id="path_12"
        d="M 100.639 485.292 L 100.639 61.241 L 67.639 61.241 L 67.639 485.291 C 67.639 495.909 76.247 504.517 86.865 504.517 L 119.865 504.517 C 109.247 504.518 100.639 495.91 100.639 485.292 Z"
        fill="#b1dbfc"/>
    <path
        id="path_13"
        d="M 425.135 7.516 L 120.675 7.516 L 120.675 63.242 L 444.362 63.242 L 444.362 26.742 C 444.362 16.123 435.753 7.516 425.135 7.516 Z"
        fill="#5cb3f8"/>
    <path
        id="path_14"
        d="M 122.675 7.516 L 86.865 7.516 C 76.247 7.516 67.639 16.124 67.639 26.742 L 67.639 63.242 L 122.675 63.242 Z"
        fill="#ff656f"/>
    <path
        id="path_15"
        d="M 119.865 7.516 L 86.865 7.516 C 76.247 7.516 67.639 16.124 67.639 26.742 L 67.639 63.242 L 100.639 63.242 L 100.639 26.742 C 100.639 16.123 109.247 7.516 119.865 7.516 Z"
        fill="#ff4756"/>
    <path
        id="path_16"
        d="M 256 93.921 C 217.432 93.921 186.167 125.187 186.167 163.754 C 186.167 185.963 196.547 205.736 212.707 218.527 L 212.707 200.798 C 212.707 187.757 222.457 177.087 234.373 177.087 L 277.628 177.087 C 289.544 177.087 299.294 187.757 299.294 200.798 L 299.294 218.527 C 315.454 205.737 325.834 185.964 325.834 163.754 C 325.834 125.187 294.568 93.921 256 93.921 Z"
        fill="#5cb3f8"/>
    <path
        id="path_17"
        d="M 217.417 163.755 C 217.417 130.561 240.584 102.797 271.625 95.698 C 266.599 94.549 261.374 93.921 256 93.921 C 217.432 93.921 186.167 125.187 186.167 163.754 C 186.167 185.963 196.547 205.736 212.707 218.527 L 212.707 200.798 C 212.707 193.722 215.582 187.348 220.112 182.994 C 218.361 176.883 217.417 170.43 217.417 163.755 Z"
        fill="#0290f4"/>
    <path
        id="path_18"
        d="M 256 149.787 M 230.467 149.787 C 230.45 144.385 232.148 139.114 235.315 134.737 C 238.482 130.361 242.958 127.1 248.094 125.428 C 253.231 123.755 258.769 123.755 263.906 125.428 C 269.042 127.1 273.518 130.361 276.685 134.737 C 279.852 139.114 281.55 144.385 281.533 149.787 C 281.533 156.556 278.841 163.055 274.055 167.842 C 269.268 172.628 262.769 175.32 256 175.32 C 249.231 175.32 242.732 172.628 237.945 167.842 C 233.159 163.055 230.467 156.556 230.467 149.787"
        fill="#ffcebe"/>
    <path
        id="path_19"
        d="M 252.468 149.787 C 252.468 139.625 258.406 130.85 267.001 126.741 C 263.67 125.148 259.94 124.255 256.001 124.255 C 241.9 124.255 230.468 135.686 230.468 149.788 C 230.468 163.89 241.899 175.32 256 175.32 C 259.939 175.32 263.669 174.427 267 172.834 C 258.406 168.724 252.468 159.95 252.468 149.787 Z"
        fill="#ffb1a0"/>
    <path
        id="path_20"
        d="M 278.305 175.32 L 233.696 175.32 C 221.407 175.32 211.353 185.375 211.353 197.663 L 211.353 217.444 C 223.458 227.521 239.019 233.588 256.001 233.588 C 272.983 233.588 288.544 227.522 300.649 217.444 L 300.649 197.663 C 300.648 185.375 290.594 175.32 278.305 175.32 Z"
        fill="#ff656f"/>
    <path
        id="path_21"
        d="M 233.353 195.663 C 233.353 186.649 238.766 178.843 246.499 175.32 L 233.697 175.32 C 221.408 175.32 211.353 185.375 211.353 197.663 L 211.353 217.444 C 217.805 222.815 225.246 227.032 233.353 229.813 Z"
        fill="#ff4756"/>
    <path
        id="path_22"
        d="M 193.631 271.296 L 119.423 271.296 C 113.763 271.296 109.175 275.884 109.175 281.544 L 109.175 339.581 C 109.175 345.241 113.763 349.829 119.423 349.829 L 193.631 349.829 C 199.291 349.829 203.879 345.241 203.879 339.581 L 203.879 281.544 C 203.879 275.884 199.291 271.296 193.631 271.296 Z"
        fill="#43cb8e"/>
    <path
        id="path_23"
        d="M 193.631 383.555 L 119.423 383.555 C 113.763 383.555 109.175 388.143 109.175 393.803 L 109.175 451.84 C 109.175 457.5 113.763 462.088 119.423 462.088 L 193.631 462.088 C 199.291 462.088 203.879 457.5 203.879 451.84 L 203.879 393.803 C 203.879 388.144 199.291 383.555 193.631 383.555 Z"
        fill="#43cb8e"/>
    <path
        id="path_24"
        d="M 407.109 27.863 L 159.262 27.863 C 155.119 27.863 151.762 31.221 151.762 35.363 C 151.762 39.505 155.119 42.863 159.262 42.863 L 407.11 42.863 C 411.253 42.863 414.61 39.505 414.61 35.363 C 414.61 31.221 411.252 27.863 407.109 27.863 Z"
        fill="#000000"/>
    <path
        id="path_25"
        d="M 211.379 281.528 C 211.379 271.742 203.418 263.78 193.632 263.78 L 119.423 263.78 C 109.637 263.78 101.675 271.741 101.675 281.528 L 101.675 339.565 C 101.675 349.351 109.637 357.313 119.423 357.313 L 193.632 357.313 C 203.418 357.313 211.379 349.352 211.379 339.565 Z M 196.379 339.565 C 196.379 341.08 195.147 342.313 193.632 342.313 L 119.423 342.313 C 117.907 342.313 116.675 341.081 116.675 339.565 L 116.675 281.528 C 116.675 280.013 117.907 278.78 119.423 278.78 L 193.632 278.78 C 195.147 278.78 196.379 280.012 196.379 281.528 Z"
        fill="#000000"/>
    <path
        id="path_26"
        d="M 193.632 376.04 L 119.423 376.04 C 109.637 376.04 101.675 384.002 101.675 393.788 L 101.675 451.825 C 101.675 461.611 109.637 469.573 119.423 469.573 L 193.632 469.573 C 203.418 469.573 211.379 461.611 211.379 451.825 L 211.379 393.788 C 211.379 384.001 203.418 376.04 193.632 376.04 Z M 196.379 451.824 C 196.379 453.339 195.147 454.572 193.632 454.572 L 119.423 454.572 C 117.907 454.572 116.675 453.339 116.675 451.824 L 116.675 393.787 C 116.675 392.272 117.907 391.039 119.423 391.039 L 193.632 391.039 C 195.147 391.039 196.379 392.272 196.379 393.787 Z"
        fill="#000000"/>
    <path
        id="path_27"
        d="M 395.713 273.447 L 239.141 273.447 C 234.998 273.447 231.641 276.805 231.641 280.947 C 231.641 285.089 234.998 288.447 239.141 288.447 L 395.713 288.447 C 399.856 288.447 403.213 285.089 403.213 280.947 C 403.213 276.805 399.855 273.447 395.713 273.447 Z"
        fill="#000000"/>
    <path
        id="path_28"
        d="M 395.713 303.047 L 239.141 303.047 C 234.998 303.047 231.641 306.405 231.641 310.547 C 231.641 314.689 234.998 318.047 239.141 318.047 L 395.713 318.047 C 399.856 318.047 403.213 314.689 403.213 310.547 C 403.213 306.405 399.855 303.047 395.713 303.047 Z"
        fill="#000000"/>
    <path
        id="path_29"
        d="M 395.713 332.647 L 239.141 332.647 C 234.998 332.647 231.641 336.005 231.641 340.147 C 231.641 344.289 234.998 347.647 239.141 347.647 L 395.713 347.647 C 399.856 347.647 403.213 344.289 403.213 340.147 C 403.213 336.005 399.855 332.647 395.713 332.647 Z"
        fill="#000000"/>
    <path
        id="path_30"
        d="M 395.713 385.706 L 239.141 385.706 C 234.998 385.706 231.641 389.064 231.641 393.206 C 231.641 397.348 234.998 400.706 239.141 400.706 L 395.713 400.706 C 399.856 400.706 403.213 397.348 403.213 393.206 C 403.213 389.064 399.855 385.706 395.713 385.706 Z"
        fill="#000000"/>
    <path
        id="path_31"
        d="M 395.713 415.306 L 239.141 415.306 C 234.998 415.306 231.641 418.664 231.641 422.806 C 231.641 426.948 234.998 430.306 239.141 430.306 L 395.713 430.306 C 399.856 430.306 403.213 426.948 403.213 422.806 C 403.213 418.664 399.855 415.306 395.713 415.306 Z"
        fill="#000000"/>
    <path
        id="path_32"
        d="M 395.713 444.906 L 239.141 444.906 C 234.998 444.906 231.641 448.264 231.641 452.406 C 231.641 456.548 234.998 459.906 239.141 459.906 L 395.713 459.906 C 399.856 459.906 403.213 456.548 403.213 452.406 C 403.213 448.264 399.855 444.906 395.713 444.906 Z"
        fill="#000000"/>
    <path
        id="path_33"
        d="M 166.327 296.172 L 153.488 309.012 L 146.726 302.25 C 143.796 299.321 139.048 299.321 136.119 302.25 C 133.19 305.179 133.19 309.928 136.119 312.856 L 148.184 324.921 C 151.112 327.848 155.861 327.85 158.791 324.921 L 176.934 306.778 C 179.863 303.849 179.863 299.1 176.934 296.172 C 174.005 293.244 169.257 293.244 166.327 296.172 Z"
        fill="#000000"/>
    <path
        id="path_34"
        d="M 166.327 408.431 L 153.488 421.271 L 146.725 414.509 C 143.797 411.579 139.048 411.58 136.119 414.509 C 133.19 417.438 133.19 422.187 136.12 425.115 L 148.185 437.18 C 151.111 440.108 155.86 440.11 158.791 437.18 L 176.934 419.037 C 179.863 416.108 179.863 411.359 176.934 408.431 C 174.005 405.502 169.257 405.502 166.327 408.431 Z"
        fill="#000000"/>
    <path
        id="path_35"
        d="M 256.001 241.072 C 298.744 241.072 333.334 206.234 333.334 163.739 C 333.334 128.455 309.5 97.662 275.375 88.855 C 271.361 87.821 267.272 90.233 266.239 94.243 C 265.204 98.254 267.616 102.344 271.627 103.379 C 299.127 110.476 318.334 135.296 318.334 163.738 C 318.334 176.313 314.579 188.021 308.148 197.825 L 308.148 197.646 C 308.148 182.918 297.421 170.656 283.372 168.242 C 286.944 162.966 289.032 156.607 289.032 149.77 C 289.032 131.556 274.214 116.737 256 116.737 C 237.785 116.737 222.967 131.555 222.967 149.77 C 222.967 156.607 225.055 162.966 228.627 168.242 C 214.578 170.657 203.851 182.919 203.851 197.646 L 203.851 197.825 C 197.421 188.021 193.665 176.313 193.665 163.738 C 193.665 135.296 212.872 110.475 240.373 103.379 C 244.384 102.344 246.796 98.254 245.761 94.243 C 244.727 90.233 240.634 87.82 236.625 88.855 C 202.499 97.662 178.665 128.455 178.665 163.739 C 178.667 206.122 213.109 241.072 256.001 241.072 Z M 256.001 131.739 C 265.944 131.739 274.033 139.828 274.033 149.772 C 274.033 159.716 265.944 167.805 256.001 167.805 C 246.058 167.805 237.968 159.716 237.968 149.772 C 237.968 139.828 246.058 131.739 256.001 131.739 Z M 218.853 197.647 C 218.853 189.462 225.512 182.804 233.697 182.804 L 278.306 182.804 C 286.491 182.804 293.149 189.463 293.149 197.647 L 293.149 213.76 C 282.018 222.048 268.819 226.072 256.002 226.072 C 243.157 226.072 229.951 222.023 218.854 213.76 L 218.854 197.647 Z"
        fill="#000000"/>
    <path
        id="path_36"
        d="M 60.14 26.726 L 60.14 485.276 C 60.14 500.013 72.129 512.002 86.866 512.002 L 425.137 512.002 C 439.874 512.002 451.864 500.013 451.864 485.276 L 451.864 273.501 C 451.864 269.359 448.507 266.001 444.364 266.001 C 440.221 266.001 436.864 269.359 436.864 273.501 L 436.864 485.276 C 436.864 491.742 431.603 497.002 425.137 497.002 L 86.865 497.002 C 80.399 497.002 75.139 491.742 75.139 485.276 L 75.139 70.726 L 436.862 70.726 L 436.862 238.501 C 436.862 242.643 440.219 246.001 444.362 246.001 C 448.505 246.001 451.862 242.643 451.862 238.501 L 451.862 26.726 C 451.862 11.989 439.873 0 425.136 0 L 86.865 0 C 72.129 0 60.14 11.989 60.14 26.726 Z M 130.175 15 L 425.136 15 C 431.602 15 436.863 20.26 436.863 26.726 L 436.863 55.726 L 130.175 55.726 Z M 115.175 55.726 L 75.14 55.726 L 75.14 26.726 C 75.14 20.26 80.399 15 86.865 15 L 115.175 15 Z"
        fill="#000000"/>
</svg>
