<svg
    xmlns="http://www.w3.org/2000/svg"
    viewBox="0 0 512 512"
    id="vector">
    <path
        id="path"
        d="M 228.546 238.629 L 221.589 273.584 L 198.282 281.6 L 212.075 499.194 L 300.757 498.691 L 304.899 277.49 L 290.014 272.807 L 282.428 237.148 L 228.546 238.629 L 228.546 238.629 Z"
        fill="#f0ba7d"/>
    <path
        id="path_1"
        d="M 192.992 342.31 C 231.793 361.122 271.707 365.071 313.724 343.375 L 312.292 505.777 C 294.176 509.84 275.341 512 256 512 C 233.744 512 212.154 509.156 191.568 503.818 L 192.992 342.31 Z"
        fill="#21d0c3"/>
    <path
        id="path_2"
        d="M 297.499 275.471 L 365.091 293.905 C 382.618 299.316 398.279 309.68 398.78 328.305 L 402.487 465.954 C 387.083 476.722 370.439 485.83 352.813 493.039 L 348.499 416.914 L 336.662 499.018 C 311.304 507.439 284.186 512 256.001 512 C 255.265 512 254.535 511.978 253.8 511.972 L 253.772 442.185 L 297.499 275.471 Z"
        fill="#eef3f7"/>
    <path
        id="path_3"
        d="M 296.855 274.993 L 305.762 278.586 L 336.145 324.198 L 300.532 323.625 L 322.606 335.437 L 253.773 442.186 L 296.855 274.993 L 296.855 274.993 Z"
        fill="#ffffff"/>
    <path
        id="path_4"
        d="M 218.424 274.774 L 150.517 292.013 C 132.895 297.116 117.057 307.201 116.226 325.814 L 109.964 466.267 C 125.233 476.892 141.714 485.891 159.157 493.029 L 164.937 415.297 L 175.512 499.076 C 200.159 507.239 226.468 511.742 253.799 511.973 L 253.771 442.186 L 218.424 274.774 L 218.424 274.774 Z"
        fill="#ffffff"/>
    <path
        id="path_5"
        d="M 219.076 274.306 L 208.456 278.374 L 178.926 322.811 L 214.545 322.868 L 192.265 334.288 L 253.773 442.185 L 219.076 274.306 L 219.076 274.306 Z"
        fill="#eef3f7"/>
    <path
        id="path_6"
        d="M 182.578 154.801 C 181.443 166.257 183.737 191.693 197.634 190.725 C 197.634 190.725 217.636 249.02 256.145 255.621 C 289.391 249.546 309.615 196.748 311.15 191.725 C 315.729 193.289 328.546 171.969 318.721 154.527 C 315.903 149.525 307.926 153.575 307.926 153.575 L 307.312 139.01 C 254.776 144.112 222.016 93.299 222.016 93.299 C 201.989 115.084 197.171 127.518 195.029 154.613 C 195.029 154.613 191.268 152.278 187.093 152.189 C 185.835 152.161 184.221 153.257 182.578 154.801 L 182.578 154.801 Z"
        fill="#fed298"/>
    <path
        id="path_7"
        d="M 221.588 273.584 L 228.393 239.409 C 208.68 220 198.401 190.725 198.401 190.725 C 184.969 192.223 179.575 155.204 188.612 153.911 C 192.745 153.319 195.512 154.614 195.512 154.614 C 197.547 126.006 203.057 117.307 222.015 93.3 C 222.015 93.3 255.133 149.02 307.628 143.917 L 308.379 155.931 C 310.861 153.491 315.398 151.198 319.178 157.415 C 325.328 167.53 317.283 190.518 309.835 191.921 C 308.78 195.465 300.491 221.616 282.934 239.536 L 290.013 272.809 C 309.712 279.188 328.705 284.115 347.77 289.184 C 338.085 230.146 332.535 166.26 320.971 111.726 C 309.873 59.395 249.206 44.759 214.319 68 C 214.319 68 184.237 80.121 178.745 120.32 C 173.255 160.517 175.356 164.391 175.356 164.391 L 165.663 288.17 C 183.636 283.607 204.447 279.478 221.588 273.584 L 221.588 273.584 Z"
        fill="#666666"/>
    <path
        id="path_8"
        d="M 348.527 418.914 C 338.538 417.189 331.837 407.692 333.561 397.702 C 335.286 387.714 344.784 381.01 354.773 382.734 C 364.764 384.459 371.464 393.959 369.74 403.95 C 368.015 413.939 358.517 420.639 348.527 418.914 Z"
        fill="#fefefe"/>
    <path
        id="path_9"
        d="M 348.709 417.86 C 339.301 416.235 332.99 407.294 334.615 397.885 C 336.24 388.476 345.183 382.164 354.593 383.789 C 364.002 385.415 370.311 394.36 368.687 403.768 C 367.06 413.177 358.119 419.485 348.709 417.86 Z"
        fill="#0f7986"/>
    <path
        id="path_10"
        d="M 350.022 410.253 C 344.819 409.355 341.325 404.402 342.224 399.199 C 343.122 393.992 348.073 390.503 353.276 391.401 C 358.483 392.3 361.974 397.247 361.075 402.454 C 360.178 407.658 355.229 411.151 350.022 410.253 L 350.022 410.253 Z"
        fill="#ebecec"/>
    <path
        id="path_11"
        d="M 351.147 392.425 L 355.351 393.15 L 357.611 380.06 L 353.409 379.335 L 351.147 392.425 L 351.147 392.425 Z"
        fill="#fefefe"/>
    <path
        id="path_12"
        d="M 210.372 422.546 L 218.249 420.983 C 221.595 420.318 224.368 418.347 226.135 415.704 C 227.9 413.061 228.667 409.747 228.001 406.4 L 218.739 359.732 C 215.243 342.122 201.466 333.141 185.723 331.151 C 179.69 330.387 173.366 330.665 167.24 331.88 C 161.109 333.092 155.165 335.25 149.884 338.258 C 136.13 346.091 126.86 359.636 130.362 377.275 L 139.624 423.944 C 140.289 427.29 142.263 430.061 144.904 431.829 L 144.91 431.827 C 147.554 433.596 150.864 434.359 154.209 433.695 L 162.081 432.132 L 161.437 428.887 L 153.563 430.45 C 151.109 430.937 148.677 430.376 146.741 429.083 L 146.742 429.082 C 144.804 427.783 143.356 425.751 142.868 423.301 L 133.606 376.632 C 130.429 360.627 138.923 348.291 151.508 341.128 C 156.481 338.294 162.091 336.26 167.881 335.111 C 173.67 333.964 179.633 333.705 185.315 334.422 C 199.723 336.243 212.324 344.404 215.493 360.378 L 224.758 407.047 C 225.244 409.499 224.68 411.928 223.386 413.869 C 222.089 415.805 220.055 417.253 217.603 417.738 L 209.727 419.301 L 210.372 422.546 L 210.372 422.546 Z"
        fill="#21d0c3"/>
    <path
        id="path_13"
        d="M 221.235 366.648 L 219.82 359.519 C 216.218 341.362 202.043 332.109 185.857 330.061 C 179.709 329.286 173.268 329.562 167.027 330.802 C 160.784 332.038 154.727 334.238 149.345 337.3 C 135.199 345.357 125.672 359.303 129.28 377.49 L 130.697 384.619 L 136.102 383.544 L 134.687 376.416 C 131.62 360.958 139.855 349.024 152.049 342.079 C 156.923 339.305 162.418 337.313 168.096 336.187 C 173.772 335.06 179.617 334.807 185.184 335.51 C 199.146 337.274 211.351 345.162 214.415 360.591 L 215.829 367.72 L 221.235 366.648 L 221.235 366.648 Z"
        fill="#4d4d4d"/>
    <path
        id="path_14"
        d="M 155.836 434.082 L 160.049 433.245 C 161.106 434.432 162.743 435.042 164.411 434.711 C 166.918 434.214 168.547 431.779 168.049 429.27 C 167.553 426.766 165.118 425.136 162.611 425.635 C 160.94 425.966 159.661 427.157 159.139 428.656 L 154.927 429.491 L 155.836 434.082 Z"
        fill="#076673"/>
    <path
        id="path_15"
        d="M 213.72 422.593 L 209.51 423.43 C 208.987 424.928 207.708 426.119 206.039 426.45 C 203.533 426.946 201.099 425.318 200.601 422.81 C 200.105 420.306 201.733 417.87 204.238 417.373 C 205.907 417.042 207.546 417.654 208.599 418.839 L 212.811 418.002 L 213.72 422.593 L 213.72 422.593 Z"
        fill="#076673"/>
    <path
        id="path_16"
        d="M 169.59 330.379 L 167.983 322.282 L 164.788 322.918 L 161.598 323.55 L 163.223 331.726 C 164.44 331.37 165.672 331.069 166.916 330.823 C 167.802 330.646 168.694 330.499 169.59 330.379 Z"
        fill="#666666"/>
    <path
        id="path_17"
        d="M 162.697 429.577 C 163.457 429.426 163.948 428.687 163.797 427.932 C 163.647 427.173 162.912 426.679 162.152 426.83 C 161.392 426.981 160.901 427.717 161.051 428.476 C 161.202 429.233 161.938 429.728 162.697 429.577 L 162.697 429.577 Z"
        fill="#0f7986"/>
    <path
        id="path_18"
        d="M 204.351 421.295 C 205.108 421.145 205.6 420.408 205.449 419.652 C 205.298 418.892 204.564 418.399 203.804 418.549 C 203.044 418.7 202.553 419.436 202.704 420.197 C 202.853 420.952 203.59 421.445 204.351 421.295 Z"
        fill="#0f7986"/>
    <path
        id="path_19"
        d="M 349.511 410.164 C 344.588 409.314 341.287 404.633 342.136 399.709 C 342.986 394.788 347.664 391.486 352.588 392.335 C 357.51 393.185 360.813 397.864 359.964 402.786 C 359.114 407.711 354.433 411.014 349.511 410.164 Z"
        fill="#fefefe"/>
    <path
        id="path_20"
        d="M 208.563 278.563 C 208.421 278.564 158.701 278.977 167.1 322.475 L 162.477 323.359 C 153.009 274.321 208.351 273.869 208.509 273.867 L 208.563 278.563 L 208.563 278.563 Z"
        fill="#4d4d4d"/>
    <path
        id="path_21"
        d="M 307.775 274.091 C 315.886 274.309 331.569 276.52 343.636 291.202 C 355.447 305.569 363.727 331.954 357.535 380.33 L 352.874 379.74 C 358.867 332.917 351.123 307.709 340.008 294.186 C 329.148 280.975 314.989 278.984 307.664 278.787 L 307.775 274.091 L 307.775 274.091 Z"
        fill="#4d4d4d"/>
</svg>
